<?xml version="1.0" standalone="no"?>
<!DOCTYPE svg PUBLIC "-//W3C//DTD SVG 20010904//EN"
 "http://www.w3.org/TR/2001/REC-SVG-20010904/DTD/svg10.dtd">
<svg version="1.0" xmlns="http://www.w3.org/2000/svg"
 width="512.000000pt" height="512.000000pt" viewBox="0 0 512.000000 512.000000"
 preserveAspectRatio="xMidYMid meet">
<metadata>
Created by potrace 1.14, written by Peter Selinger 2001-2017
</metadata>
<g transform="translate(0.000000,512.000000) scale(0.100000,-0.100000)"
fill="#000000" stroke="none">
<path d="M3365 4555 c-272 -44 -506 -154 -661 -309 -149 -150 -233 -320 -264
-535 -19 -128 -8 -354 23 -465 l25 -89 -26 34 c-116 155 -295 257 -539 309
-144 31 -438 38 -593 16 -352 -52 -723 -205 -784 -325 -35 -68 -31 -246 8
-303 43 -64 55 -62 258 40 301 150 455 193 698 193 235 1 378 -47 483 -161
108 -116 136 -213 144 -491 l6 -196 -300 -6 c-347 -8 -515 -25 -697 -71 -167
-43 -271 -83 -371 -145 -258 -159 -385 -390 -385 -696 2 -477 302 -780 822
-827 342 -32 628 68 911 316 l87 77 0 -145 c0 -79 3 -152 6 -161 12 -31 65
-47 168 -52 162 -9 256 22 256 85 0 19 4 23 18 17 78 -34 260 -88 367 -110
106 -23 165 -29 321 -33 219 -5 346 6 509 48 237 59 419 157 570 305 137 134
226 280 282 461 25 83 27 104 31 311 3 200 2 230 -17 302 -43 165 -151 344
-280 464 -145 134 -297 224 -711 419 -410 194 -553 285 -656 421 -89 117 -121
227 -111 375 9 141 48 233 136 325 170 179 491 235 814 142 116 -34 243 -89
379 -165 124 -70 173 -83 200 -53 24 26 38 107 38 220 0 126 -14 177 -61 224
-74 74 -322 176 -535 220 -133 27 -439 35 -569 14z m-727 -1646 c84 -113 235
-235 417 -340 104 -59 187 -100 535 -265 335 -157 489 -281 570 -456 76 -164
54 -416 -49 -575 -43 -67 -140 -159 -203 -195 -145 -81 -279 -111 -488 -111
-247 0 -408 39 -662 160 l-117 56 -4 771 c-4 738 -5 775 -25 866 -11 52 -27
118 -36 145 -14 47 -14 49 2 25 9 -13 36 -50 60 -81z m-498 -1301 l0 -293
-103 -100 c-225 -218 -394 -299 -622 -299 -293 0 -469 135 -506 387 -47 314
156 528 556 586 33 5 198 9 368 10 l307 1 0 -292z"/>
</g>
</svg>
